<svg viewBox="0 0 801 414.955">
  <defs>
    <linearGradient id="linear-gradient" x1="0.1" y1="0.119" x2="0.921" y2="0.963" gradientUnits="objectBoundingBox">
      <stop offset="0" stop-color="#a598fc"/>
      <stop offset="1" stop-color="#7c70cf"/>
    </linearGradient>
  </defs>
  <g id="background" transform="translate(-560 -232.998)">
    <path id="Union_17" data-name="Union 17" d="M-8601.081-6234.563q-.3.015-.613.015a10.451,10.451,0,0,1-5.929-1.713,22.348,22.348,0,0,1-4.053-3.769c-2.348-2.58-4.773-5.244-9.35-5.469-9.352.456-9.563,10.952-19.294,10.952-.229,0-.453-.006-.672-.018q-.311.016-.629.016a10.426,10.426,0,0,1-5.924-1.711,22.317,22.317,0,0,1-4.053-3.763c-2.355-2.582-4.783-5.245-9.371-5.476-9.336.468-9.553,10.951-19.312,10.951q-.344,0-.673-.018-.311.016-.628.016a10.445,10.445,0,0,1-5.927-1.713,22.348,22.348,0,0,1-4.053-3.769c-2.347-2.579-4.768-5.237-9.336-5.468-9.334.468-9.551,10.951-19.31,10.951-.235,0-.464-.006-.688-.018q-.318.016-.645.016a10.438,10.438,0,0,1-5.927-1.713,22.424,22.424,0,0,1-4.055-3.769c-2.345-2.576-4.763-5.231-9.318-5.467-9.35.478-9.571,10.95-19.325,10.95q-.353,0-.689-.018c-.213.011-.428.016-.646.016a10.446,10.446,0,0,1-5.926-1.713,22.316,22.316,0,0,1-4.053-3.769c-2.342-2.574-4.762-5.23-9.318-5.467-9.317.479-9.54,10.95-19.293,10.95-.24,0-.476-.007-.705-.019q-.327.016-.663.017a10.442,10.442,0,0,1-5.926-1.713,22.316,22.316,0,0,1-4.053-3.769c-2.344-2.576-4.763-5.231-9.32-5.467-9.316.479-9.54,10.95-19.293,10.95-.241,0-.475-.007-.7-.019q-.327.016-.662.017a10.433,10.433,0,0,1-5.924-1.711,22.371,22.371,0,0,1-4.053-3.761l0,0c-2.344-2.572-4.765-5.226-9.319-5.471-9.318.5-9.552,10.948-19.294,10.948q-.362,0-.705-.02-.328.018-.663.018a10.491,10.491,0,0,1-5.947-1.715,22.274,22.274,0,0,1-4.066-3.774,22.258,22.258,0,0,0-4.058-3.766,10.274,10.274,0,0,0-5.227-1.691c-9.318.5-9.553,10.948-19.295,10.948-.24,0-.475-.007-.7-.019-.218.011-.437.017-.661.017a10.484,10.484,0,0,1-5.949-1.717,22.373,22.373,0,0,1-4.069-3.772,22.125,22.125,0,0,0-4.056-3.766,10.268,10.268,0,0,0-5.226-1.691c-9.316.5-9.551,10.948-19.293,10.948q-.369,0-.721-.021-.335.019-.682.019a10.435,10.435,0,0,1-5.924-1.713,22.269,22.269,0,0,1-4.056-3.769c-2.338-2.569-4.75-5.218-9.285-5.465-9.316.5-9.552,10.948-19.293,10.948q-.369,0-.721-.021-.335.019-.68.019a10.477,10.477,0,0,1-5.947-1.717,22.284,22.284,0,0,1-4.062-3.771,22.317,22.317,0,0,0-4.06-3.768,10.268,10.268,0,0,0-5.226-1.691c-9.288.5-9.521,10.948-19.263,10.948q-.376,0-.735-.021-.343.019-.7.019a10.425,10.425,0,0,1-5.922-1.711,22.233,22.233,0,0,1-4.055-3.763c-2.345-2.57-4.759-5.22-9.306-5.473-9.271.513-9.509,10.948-19.245,10.948-10.017,0-10.017-10.967-20-10.967s-9.981,10.967-20,10.967c-9.981,0-9.981-10.967-19.963-10.967-10.014,0-10.014,10.967-20,10.967-10.012,0-10.012-10.967-19.993-10.967s-9.981,10.967-20,10.967c-9.981,0-9.981-10.967-20-10.967-9.56,0-9.949,10.034-18.762,10.91v-413.9h158.471v0H-8438.5v413.437a11.012,11.012,0,0,1-3.455.517,10.453,10.453,0,0,1-5.929-1.713,22.269,22.269,0,0,1-4.055-3.771c-2.453-2.7-4.992-5.481-9.981-5.481s-7.533,2.789-9.984,5.489a22.236,22.236,0,0,1-4.043,3.765,10.367,10.367,0,0,1-5.9,1.711,10.426,10.426,0,0,1-5.924-1.711,22.312,22.312,0,0,1-4.055-3.765c-2.463-2.7-5.006-5.489-10.017-5.489-4.992,0-7.528,2.787-9.981,5.483a22.424,22.424,0,0,1-4.055,3.769,10.452,10.452,0,0,1-5.927,1.713,10.447,10.447,0,0,1-5.929-1.713,22.331,22.331,0,0,1-4.053-3.771c-2.455-2.7-4.991-5.481-9.981-5.481s-7.528,2.785-9.981,5.481a22.365,22.365,0,0,1-4.055,3.771,10.445,10.445,0,0,1-5.927,1.713,10.453,10.453,0,0,1-5.929-1.713,22.375,22.375,0,0,1-4.055-3.771c-2.453-2.7-4.989-5.481-9.979-5.481h-.034v.055c-8.746.9-9.168,10.912-18.692,10.912C-8600.648-6234.547-8600.866-6234.553-8601.081-6234.563Z" transform="translate(9799 6882)" stroke="rgba(0,0,0,0)" stroke-width="1" fill="url(#linear-gradient)"/>
  </g>
</svg>
