<svg xmlns="http://www.w3.org/2000/svg" xmlns:xlink="http://www.w3.org/1999/xlink" width="132.136" height="120.49" viewBox="0 0 132.136 120.49">
  <defs>
    <linearGradient id="linear-gradient" x1="0.171" y1="0.868" x2="0.744" y2="0.308" gradientUnits="objectBoundingBox">
      <stop offset="0" stop-color="#b8c6ff"/>
      <stop offset="1" stop-color="#d6ddf7"/>
    </linearGradient>
    <linearGradient id="linear-gradient-2" x1="0.171" y1="0.132" x2="0.744" y2="0.692" xlink:href="#linear-gradient"/>
  </defs>
  <g id="box" transform="translate(-1564.732 -278.772)">
    <ellipse id="Ellipse_597" data-name="Ellipse 597" cx="28.044" cy="23.748" rx="28.044" ry="23.748" transform="translate(1612.163 340.766) rotate(87)" opacity="0.18" fill="url(#linear-gradient)"/>
    <ellipse id="Ellipse_598" data-name="Ellipse 598" cx="31.575" cy="26.738" rx="31.575" ry="26.738" transform="translate(1630.556 358.835) rotate(-77)" opacity="0.56" fill="url(#linear-gradient-2)"/>
    <g id="Group_27801" data-name="Group 27801" transform="translate(1580.444 297.304)">
      <path id="Path_56799" data-name="Path 56799" d="M102.35,19.789v62.9c-.191.428-.372.859-.574,1.281a6.138,6.138,0,0,1-4.342,3.3h-77.3c-.247-.114-.487-.247-.741-.34a5.816,5.816,0,0,1-3.833-5.366,1.442,1.442,0,0,1,2.867-.282c.449,2.5,1.368,3.221,3.9,3.073.254.009.507.025.76.025q35.812,0,71.624,0c.282,0,.563-.02.845-.03,2.768.169,3.9-.9,3.9-3.679V20.762h-2.9c-.394-.019-.787-.056-1.181-.056Q84.791,20.7,74.2,20.7a6.414,6.414,0,0,1-1.013-.041,1.412,1.412,0,0,1-.132-2.761,4.436,4.436,0,0,1,1.091-.09q9.7-.007,19.4-.005c.62,0,1.241-.025,1.861-.039h2.5c-.29-.422-.45-.674-.628-.912C94.34,12.93,91.364,9.032,88.473,5.073a3.682,3.682,0,0,0-3.762-1.692q-9.615-.008-19.23-.013a.93.93,0,0,0-.267.108c.069.333.124.663.2.986.814,3.258,1.651,6.51,2.441,9.773a27,27,0,0,1,1.179,5.611c.141,6.917.063,13.84.052,20.76,0,2.662-2.137,3.97-4.524,2.789C62.9,42.571,61.249,41.7,59.56,40.92a1.635,1.635,0,0,0-1.225.008c-1.79.834-3.529,1.777-5.317,2.614a2.882,2.882,0,0,1-4.2-2.524c-.01-.141-.007-.282-.007-.423q0-10.38.009-20.761a6.771,6.771,0,0,1,.224-1.585Q50.77,11.263,52.52,4.284c.07-.281.107-.57.162-.864a2.651,2.651,0,0,0-.356-.064q-9.573.007-19.146.018A3.833,3.833,0,0,1,32.2,3.5,2.678,2.678,0,0,0,29.6,4.877q-4.5,6.031-9.025,12.047c-.175.234-.328.483-.561.828h2.663c.366.018.731.052,1.1.052q9.956.005,19.911.006a4.832,4.832,0,0,1,1.176.094,1.413,1.413,0,0,1-.07,2.746,6.194,6.194,0,0,1-1.18.071q-10.591.006-21.182,0c-.366,0-.731.03-1.1.045H18.444v1.176q0,23.606,0,47.21a7.269,7.269,0,0,1-.02.931,1.434,1.434,0,0,1-2.832.082,4.667,4.667,0,0,1-.035-.845q0-24.114-.01-48.228a6.657,6.657,0,0,1,1.392-4.166Q22.121,10.07,27.254,3.17A6.327,6.327,0,0,1,32.685.449q26.27.03,52.539,0a6.325,6.325,0,0,1,5.429,2.723q4.691,6.332,9.454,12.609a11.076,11.076,0,0,1,2.243,4.008M51.7,40.944c.462-.214.715-.323.961-.446,1.541-.767,3.093-1.513,4.617-2.313a3.368,3.368,0,0,1,3.314-.024c1.556.8,3.125,1.573,4.693,2.35.256.127.533.214.924.368V39.873c0-6.042-.019-12.085.021-18.126.006-.893-.291-1.078-1.115-1.071-4.093.037-8.186.016-12.279.017-1.133,0-1.136,0-1.136,1.095q0,9.021,0,18.042ZM65.76,17.758c-1.178-4.723-2.319-9.321-3.488-13.912a.767.767,0,0,0-.538-.474c-1.974-.035-3.948-.022-5.99-.022l-3.6,14.407Z" transform="translate(-10.755 -0.31)" fill="#4c3dba"/>
      <path id="Path_56802" data-name="Path 56802" d="M35.26,90.884a6.979,6.979,0,0,1-1.023-4.35q.033-29.618.021-59.236c.366-.016.731-.045,1.1-.046q10.591,0,21.182,0a6.2,6.2,0,0,0,1.18-.071,1.413,1.413,0,0,0,.069-2.746,4.815,4.815,0,0,0-1.175-.094q-9.956-.007-19.911-.006c-.366,0-.731-.034-1.1-.052a6.1,6.1,0,0,1,.437-.811c2.074-2.778,4.166-5.541,6.236-8.321,1.293-1.737,2.556-3.5,3.832-5.245q9.573-.01,19.146-.018a2.675,2.675,0,0,1,.355.063c-.054.294-.092.583-.161.864q-1.738,6.982-3.476,13.965a6.771,6.771,0,0,0-.224,1.585q-.022,10.381-.009,20.761c0,.141,0,.283.007.424a2.882,2.882,0,0,0,4.2,2.524c1.789-.837,3.527-1.78,5.317-2.614a1.637,1.637,0,0,1,1.225-.008c1.689.783,3.339,1.651,5.008,2.476,2.386,1.18,4.52-.127,4.524-2.789.01-6.921.089-13.843-.053-20.76a26.985,26.985,0,0,0-1.179-5.611C80,17.5,79.163,14.248,78.349,10.99c-.081-.323-.136-.653-.2-.987a.939.939,0,0,1,.267-.108q9.615,0,19.229.013a5.173,5.173,0,0,0,.3.5q5.2,6.942,10.4,13.881c-.62.014-1.24.039-1.861.039q-9.7,0-19.4.005a4.436,4.436,0,0,0-1.091.09,1.412,1.412,0,0,0,.132,2.761,6.346,6.346,0,0,0,1.014.041q10.588,0,21.176,0c.394,0,.787.036,1.181.056.008.113.022.225.022.338q0,26.472,0,52.945a3.894,3.894,0,0,1-.208.878A1.478,1.478,0,0,0,107.5,80.9a1.533,1.533,0,0,0-.9,1.657c.022.833.005,1.667.005,2.447a1.59,1.59,0,0,1-.3.1c-.789.01-1.578.01-2.367.023-1.015.016-1.658.55-1.688,1.388a1.506,1.506,0,0,0,1.681,1.5c1.24.016,2.486.074,3.719-.027a5.943,5.943,0,0,0,1.643-.66,3.466,3.466,0,0,1,.126,1.266,21.283,21.283,0,0,1-.939,2.282c-.282.01-.563.03-.845.03q-35.812,0-71.624,0c-.253,0-.507-.016-.76-.025" transform="translate(-23.684 -6.837)" fill="#fff"/>
      <path id="Path_56803" data-name="Path 56803" d="M132.835,86.342V85.227q0-9.021,0-18.042c0-1.092,0-1.094,1.136-1.095,4.093,0,8.186.019,12.279-.017.823-.008,1.12.178,1.114,1.071-.04,6.042-.021,12.084-.021,18.126v1.006c-.391-.154-.668-.24-.924-.368-1.568-.776-3.137-1.55-4.693-2.35a3.37,3.37,0,0,0-3.314.025c-1.524.8-3.076,1.546-4.617,2.313-.247.123-.5.232-.961.446" transform="translate(-91.892 -45.708)" fill="#cfd7f8"/>
      <path id="Path_56804" data-name="Path 56804" d="M275.14,129.943a21.289,21.289,0,0,0,.939-2.282,3.48,3.48,0,0,0-.126-1.266l0-5.882a3.884,3.884,0,0,0,.207-.878q.013-26.472,0-52.944c0-.113-.014-.225-.022-.338h2.9v1.094q0,29.409,0,58.817c0,2.779-1.135,3.848-3.9,3.679" transform="translate(-190.335 -45.901)" fill="#c7d7fb"/>
      <path id="Path_56805" data-name="Path 56805" d="M147.9,24.268H134.287l3.6-14.407c2.042,0,4.016-.013,5.99.022a.767.767,0,0,1,.538.474c1.169,4.591,2.31,9.188,3.488,13.912" transform="translate(-92.897 -6.82)" fill="#e6ebfb"/>
      <path id="Path_56806" data-name="Path 56806" d="M250.637,24.241q-5.2-6.94-10.4-13.881a5.273,5.273,0,0,1-.3-.5,3.682,3.682,0,0,1,3.762,1.692c2.892,3.959,5.867,7.857,8.808,11.781.179.238.339.49.628.912Z" transform="translate(-165.986 -6.785)" fill="#c9d8fb"/>
      <path id="Path_56809" data-name="Path 56809" d="M261.966,240.562l0,5.882a5.943,5.943,0,0,1-1.643.659c-1.232.1-2.479.043-3.719.027a1.506,1.506,0,0,1-1.681-1.5c.03-.838.673-1.372,1.688-1.388.789-.013,1.578-.013,2.367-.023a1.573,1.573,0,0,0,.3-.1c0-.779.017-1.613,0-2.446a1.532,1.532,0,0,1,.9-1.657,1.478,1.478,0,0,1,1.794.547" transform="translate(-176.352 -165.949)" fill="#4c3dba"/>
      <path id="Path_56813" data-name="Path 56813" d="M0,6.837C0,5.02,0,3.2,0,1.384A1.276,1.276,0,0,1,1.411,0,1.3,1.3,0,0,1,2.887,1.4q.007,5.487,0,10.974a1.287,1.287,0,0,1-1.414,1.385A1.3,1.3,0,0,1,0,12.358C0,10.518,0,8.677,0,6.837" transform="translate(30.671 74.685) rotate(90)" fill="#4c3dba"/>
      <path id="Path_56814" data-name="Path 56814" d="M0,6.88C0,5.04,0,3.2,0,1.359A1.271,1.271,0,0,1,1.436,0,1.3,1.3,0,0,1,2.889,1.36q.012,5.521,0,11.041a1.3,1.3,0,0,1-1.454,1.36A1.273,1.273,0,0,1,0,12.4C0,10.56,0,8.72,0,6.88" transform="translate(30.672 68.906) rotate(90)" fill="#4c3dba"/>
      <rect id="Rectangle_16364" data-name="Rectangle 16364" width="91.595" height="93.7" transform="translate(0 0)" fill="none"/>
    </g>
    <g id="Ellipse_599" data-name="Ellipse 599" transform="translate(1647.499 290.028)" fill="#6583fe" stroke="#4c3dba" stroke-width="4">
      <circle cx="18.72" cy="18.72" r="18.72" stroke="none"/>
      <circle cx="18.72" cy="18.72" r="16.72" fill="none"/>
    </g>
    <path id="Path_56818" data-name="Path 56818" d="M8068.5,6930.532l4.35,4.349,9.464-9.464" transform="translate(-6409.186 -6621.401)" fill="none" stroke="#fff" stroke-linecap="round" stroke-linejoin="round" stroke-width="3"/>
    <path id="Path_56819" data-name="Path 56819" d="M9064.725,6995.457l2.476-2.476,2.476,2.476" transform="translate(-7429.373 -6708.268)" fill="none" stroke="#4c3dba" stroke-linecap="round" stroke-linejoin="round" stroke-width="2"/>
    <path id="Path_56820" data-name="Path 56820" d="M9064.725,6995.457l2.476-2.476,2.476,2.476" transform="translate(-7471.406 -6600.701)" fill="none" stroke="#4c3dba" stroke-linecap="round" stroke-linejoin="round" stroke-width="2"/>
    <path id="Path_56821" data-name="Path 56821" d="M9064.725,6995.457l2.476-2.476,2.476,2.476" transform="translate(-7390.569 -6599.347)" fill="none" stroke="#4c3dba" stroke-linecap="round" stroke-linejoin="round" stroke-width="2"/>
    <g id="Ellipse_600" data-name="Ellipse 600" transform="translate(1644.946 278.772)" fill="none" stroke="#4c3dba" stroke-width="2">
      <circle cx="2.978" cy="2.978" r="2.978" stroke="none"/>
      <circle cx="2.978" cy="2.978" r="1.978" fill="none"/>
    </g>
    <g id="Ellipse_601" data-name="Ellipse 601" transform="translate(1602.912 390.153)" fill="none" stroke="#4c3dba" stroke-width="2">
      <circle cx="2.978" cy="2.978" r="2.978" stroke="none"/>
      <circle cx="2.978" cy="2.978" r="1.978" fill="none"/>
    </g>
  </g>
</svg>
