<svg version="1.1" id="Calque_1"  x="0px" y="0px"
	 width="100" viewBox="0 0 586.7376099 271.3974915"
	 enable-background="new 0 0 586.7376099 271.3974915" xml:space="preserve">
<g>
	<rect fill="none" width="586.7376099" height="271.3974915"/>
	<g>
		<g>
			<path fill="#3200E6" d="M144.8994598,49.946312c-0.2506714,0.7789917-0.4454346,1.4733315-0.6383667,1.7419472
				c-1.2515259,2.2252884-2.515686,4.7860222-3.8501129,6.8561592c-0.4779053,1.2280922-1.3705444,2.300972-2.1495361,3.4101028
				c-0.185791,0.9322548-3.1341553,6.0031891-3.7473297,8.1977768c-0.8547363,2.8906937-3.074646,4.9609528-4.520752,7.4854965
				c-1.287674,1.9259109-2.9593658,3.2964554-4.9231186,4.4073029c-1.1522827,1.1811523-2.5228271,2.3713379-3.7473221,3.5939407
				c-0.3318481,0.5194702,0.3336792,0.8187256,0.5139771,1.1109009c1.6716385,0.8601761,2.7085648,2.6021194,4.1602936,3.8301544
				c1.2172241,0.9468384,2.2631226,2.1801758,3.1809692,3.2459183c1.0711823,1.4859619,3.0061798,2.7122879,3.8933868,4.4938431
				c1.4083862,1.4787064,1.9998322,3.3687286,3.107132,4.8509064c1.1162109,1.2984695,1.3794556,2.8203812,2.3424683,4.0772858
				c1.5454712,0.2615356,2.4776764-1.4082718,3.1449738-2.2612991c1.7906494-1.3705521,3.6732788-2.8438797,5.2710114-4.5894318
				c7.1447296-6.6450958,13.4112854-12.7872009,20.5703583-19.0176315c1.0424347-1.0062256,1.8863678-1.8897705,3.1864166-2.4146194
				c0.4887695,0.3010864,0.6709595,0.854744,0.8548584,1.3361893c-0.2650757,1.5959473-0.4905396,3.1882401-0.8548584,4.6759796
				c-1.5255737,4.5949173-3.3324738,8.673912-4.9319611,13.1244812c-0.4003296,1.1810989-1.1108398,2.1784744-1.5544434,3.2891998
				c-0.5950928,0.5609131-0.9269409,1.5598755-1.3705444,2.2614136c-0.7718048,0.7807693-0.9612579,2.0792313-1.5580597,3.0060501
				c-1.0386963,0.4436111-1.0838013,1.5309525-1.6661987,2.3983841c-0.2272339,0.8890457-1.8178101,2.6057205-2.0792236,3.2027664
				c-1.4445953,1.4732132-5.0023956,4.2611237-5.0023956,4.2611237c-2.3714142,1.9259109-5.5253448,2.6617508-8.3403015,4.0050735
				c-0.9342041,0.5464554-2.0738525,0.8458328-3.1919556,1.1452103c-2.3748932,0-4.4955597,0.2253418-7.0004578,0.4307861
				c-0.699585,0.1678467-2.2072144,0.0794678-2.3928833,0.7810059c-0.8187256,2.5877151-1.2750244,7.7902451-1.2750244,7.7902451
				c0.045166,1.1090698-0.2271729,1.8897705-0.1460571,3.0782623c-0.4111328,2.1079712-0.5266113,4.4053955-0.6708374,6.5928497
				c0,0.5284424-0.7086945,9.8352356-1.3326569,13.7953186c-0.2218018,0.6652832-0.0324707,1.5183258-0.37146,2.1458893
				c-0.140625,2.7428589-0.2956543,5.5235748-0.4038696,8.0102081c-0.3355103,2.1891632-0.8530273,4.4488678-1.0062256,6.5225372
				c-0.9269409,1.1433258-1.5166092,5.1484528-1.554512,5.8877716c-0.37323,0.5952301-0.742981,1.3723907-1.5201416,1.5237579
				c-0.3570557,0.1010742-0.5140381,0.1659546-0.9251785,0.2183228c-0.4959106-0.1821899-0.5445557-0.5338135-0.8223267-0.9629517
				c-0.7771606-3.107193-1.8176956-6.1186218-2.7716751-9.0021057c-0.2993164-0.9990845-0.5175171-2.2271118-0.8926392-3.341629
				c-1.3326492-2.517334-1.368721-5.6678009-1.6680984-8.3365631c-0.4436035-4.4073029-1.3019409-9.4475403-1.074707-13.9341888
				c0.1100464-2.7445068-0.1135864-5.4568024-0.0343018-8.1923981c0.0721436-2.924942,0.8530273-5.9309235,1.1090088-8.9281311
				c-0.0757446-3.3342972,1.2515335-6.9245758,0.6096191-10.0534286c-0.1677246-1.2694778-0.4868774-1.1396561-0.6096191-1.9204178
				c-0.4436035-0.9251709-1.3289795-1.4860306-1.9294434-2.4507523c-4.4487457-3.1503372-8.0843124-7.2204132-12.0064468-11.0127258
				c-0.559082-0.2939453-0.9972534-0.5140381-1.4805908-0.8115845c-1.9313431,1.0424194-3.6660309,2.5607376-5.5973663,3.5598221
				c-4.2666779,2.4795609-8.1906357,5.1861725-12.0101089,8.3384018c-2.2973709,1.2983475-4.2973099,3.5217972-7.0076447,3.9980011
				c-0.8908768,0.560791-1.9096756,0.9988403-2.7897415,1.5183105c-4.4668121-0.4328003-13.1460953,0-13.1460953,0
				c-0.7393227-0.0667725-1.6572914,0.2037354-2.6040115-0.0811768c-0.6221313-0.2993774-0.9755898-0.5769653-1.4606361-1.0964355
				c0.2650757-0.6635818,0.4850464-1.4064407,1.2244301-1.741951c2.8150101-0.5915527,6.0699005-1.6698074,8.6973495-3.2603226
				c2.0792313-0.6726685,3.9005203-1.9620438,5.6316681-3.4876175c0.4906006-0.6637039,1.1505814-1.1071854,1.8592606-1.5164871
				c0.7033081-1.5978394,2.5192947-2.5607986,3.5182571-3.9979935c1.4065628-2.3335037,3.4785843-3.8230133,4.9663849-6.0771713
				c2.5264359-2.4578247,4.6308746-5.4206696,7.5269394-7.3538361c1.9926758-1.0711746,4.2540359-1.1810989,6.4774933-1.9186478
				c3.6355057-1.2894287,7.3827133-2.1874466,10.9371033-3.8140945c1.7438431-1.554451,3.0800858-3.4875031,4.6038361-5.1501617
				c4.0340042-4.3406525,9.0761337-6.9373398,13.7430191-11.2724915c2.1531982-2.2234573,4.3026886-5.1556549,6.3385773-7.4548569
				c1.6627197-2.4722977,4.6183014-6.1492462,7.0113068-9.1698265c-1.0116577-0.0287476-2.0268555-0.0720215-3.0494385-0.0720215
				c-47.6361237,0-86.2486572,38.6194954-86.2486572,86.248291c0,26.1821442,11.6800232,49.6287384,30.099144,65.4454956
				c0.4868774-0.6564331,0.9142456-1.2352905,1.0800781-1.4156494c-2.4813919-7.6748352-8.0102768-13.7158661-8.4106064-21.6810303
				c-0.3047485-5.9743805-1.1901245-11.4601135-0.6816406-17.2756805c0.6816406-5.3756256,1.0819702-11.1516418,3.2351151-16.087265
				c4.2234039-7.5180969,9.5647888-14.7925873,14.7853851-21.497139l0.3353882-0.2614746
				c0-0.0667725,1.9655151,0.3352661,2.8185501,1.0783768c0.4075928,0.4093018,0.0343018,1.1090088,0.4075928,1.4443359
				c0,0-0.2993774,1.8178177-0.4887085,2.6347198c-0.1460571,1.0350952-0.809639,2.326355-1.0008621,3.5975342
				c-0.8097534,0.699707-2.1784058,3.7760773-2.4777298,4.7409821l-0.2561035,0.8527832
				c-1.446228,4.5949249-3.9690628,8.9642639-5.114151,13.5970306c-0.5608521,2.6688843-0.3390503,5.4135284-0.3012085,8.1563873
				c-0.0378418,1.9330597-0.0378418,4.1204987,0.0721436,5.7470245c0.4093704,2.7085724,0.7844925,5.3071442,1.6735306,8.0049133
				c0.699707,1.4588623,0.9556885,2.4939575,1.6301956,4.1963501c0.7609253,2.9806671,1.7761841,5.5144196,2.7806473,8.3293152
				c0.2199707,0.4905396,0.4598389,2.8078003,1.9926758,3.2693634c1.5598831,0.0361328,2.858284,0.2543945,4.412735,0.0703735
				c1.1829224,0.4454346,2.6706619,0.555481,3.932991,0.4021606c6.4504013,0.7159424,12.9314957,0.5626221,19.4216232,0.4436646
				c3.1124954-0.5175781,6.0014267-1.0352173,9.1878891-1.4354401c2.3785553,0.1821442,4.9970245-0.0811157,7.5937805-0.0811157
				c1.3794556-0.2236938,3.1900635-0.3643188,4.4884186-0.4021606c1.8988647,0.2542114,4.3044434-0.5969238,6.0807037,0
				c3.0367432,0.5482178,6.1908112,0.3660278,9.1230011,0.5932007c0.4111328,0,0.3317871,0.4796906,0.3317871,0.7357941
				c-0.9593506,0.418396,0,1.4823608-0.6690674,2.0719604c-4.3748322,2.1513672-8.8631744,3.8230133-13.0522766,5.8228912
				l-0.3318481,0.3336182c-3.0746613,2.0358887-6.9661407,2.0719604-9.8135681,4.1873322
				c-0.8963623,0.189209-1.6717529,0.4813232-2.5265503,0.2613525c-1.5850983,0.2578735-3.0313873,0.8115234-4.4812164,1.4102783
				c-6.8579941,1.3649902-13.7538223,2.8202667-20.6027222,4.0032501c-0.1984253,0.1443481-1.7492142,1.1126099-2.0089188,1.817749
				c-0.4075317,0.1821899-0.2542114,0.8078613-0.6672363,1.1072388c-0.6924438,1.5905304-0.7159424,3.2531891-0.8187256,4.8526764
				c10.5620422,4.6128693,22.2131348,7.1772156,34.4684219,7.1772156c22.1050415,0,42.2443695-8.315155,57.513092-21.9859009
				c-0.1659546-3.296463-1.5581665-7.7974548-1.9133911-10.0534363c-3.1016998-4.975235-5.0727081-10.0515442-7.9975891-15.0846405
				c-0.7105713-2.4812622-2.3082886-4.5677643-3.0061646-7.1230011c-0.742981-0.8511963-0.928772-2.4056549-1.7798615-3.3324738
				c-2.5552979-0.1894531-5.1142731,0.6635742-7.6371002,0.6635742c-0.8529053,0.6347656-2.2559204,0.8908691-3.3703766,1.3434601
				c-1.119812-0.2253571-2.4885254,0.2902832-3.5615234-0.0794067c-2.2595978,0.2921143-8.0462952,0.8890381-8.7405701,1.071167
				c-2.3786621,0.3336792-4.9302521,0.5897827-7.346756,1.0784912c-1.0567627,0.0882568-1.5904541,0.3425293-2.8600616,0.3641968
				c-1.6192627,0.0739136-2.517334-0.2542725-3.8391724-0.326355c-1.7528229,0.6275635-3.4479523,0.2181396-5.1611481,0.6275635
				c-0.4400024-0.4094238-1.2190704-0.8168945-1.1883087-1.4877319c0.0774536-0.3282471-0.513916-0.9936523,0-1.3273315
				c1.6770782-0.3011017,3.0114288-1.4443512,4.6759796-1.7528229c0.4471436-0.4363403,2.5191193-0.3642578,2.3713531-0.7284546
				c3.6318359-1.5255737,7.7091827-1.9692993,10.9694519-4.0484161c1.1109009-0.1478882,2.00354-0.8097534,3.1179199-0.9558105
				c4.6994781-1.7004395,9.0057068-3.8590851,13.8224335-5.6028595c6.5189362-1.5092163,11.8621521-4.74263,18.0113983-6.8578644
				c1.2984009-0.0361328,2.2686157-0.6276245,3.1847076-1.4805298c1.3452148-1.5545197,2.2270508-3.5164337,3.2333374-5.3341217
				c2.1856232-2.596756,2.8528595-5.855423,5.6678619-8.0735779c0.8474731-1.1972656,1.215332-2.5696411,2.1819-3.6768265
				c0-1.788826-0.6654053-3.4443436-1.478653-5.0041046c-1.5147705-2.1514359-3.0783081-4.6688309-4.2630615-7.0420074
				c-2.7806549-3.8210602-3.99617-8.4898911-4.7390289-12.8953629c-1.0459595-1.7005081-2.9340363-2.2991409-4.2685089-3.7797318
				h-0.18396c-1.0765381-0.7068558-1.7076416-1.3056107-2.594986-2.1513748
				c-1.8086548-1.1469193-2.5930786-2.8888626-3.9654541-4.414444c-1.3740845-0.9972534-1.7041168-2.7428055-2.0034943-4.1223221
				c2.2631989-0.4363403,4.4866486-0.0270386,6.638031-0.328125c0.885498,0.3731689,1.9962769-0.2183838,2.8438721,0.2559814
				c1.1630859,1.3434448,2.0809326,2.8599319,2.6778717,4.4577103c6.1889801,8.9011536,13.6438293,16.0494843,19.8671112,24.4961014
				c1.1901245,0.6726761,0.6275024,2.4146194,1.1468506,3.4082184c0.4796906,2.2252808,0.7033234,4.5929642,0.9972687,6.747879
				c1.0043945,4.4848709-0.9539948,8.6794662-0.6618195,13.1894302c0,0-1.0405273,10.2698669-1.6626587,14.873642
				c-0.9665527,3.7797241-0.7844238,7.8516388-1.9277954,11.6349182c-0.5247192,2.3334961-1.3795166,4.8888092-1.8969879,7.3864288
				c0.223526,1.0980835-0.8909302,1.7996216-0.5915527,3.1412506c0.3119507,0.3643188,2.3839264,1.2839966,3.9691315,1.9404297
				c7.6153717-12.8539124,11.999176-27.852066,11.999176-43.8798218
				C221.9476471,91.1770172,188.2095795,54.5338478,144.8994598,49.946312z M103.1568909,65.368042
				c1.0784378-0.6274414,2.0486526,0.5177078,3.0746536,0.6997147c0.9738846,1.3363647,1.3742142,3.1144485,1.8232498,4.6399002
				c1.0368652,1.5166092-0.2651978,3.0710602-0.230896,4.7805939c-0.5067139,1.1433182-1.2569656,2.2614212-1.8447952,3.3306961
				c-1.116272,0.5627518-2.1873856,1.7438431-3.4857864,0.8908157c-0.4111328,0.1100464-1.3651199-0.2901611-1.5201492-0.2901611
				c-1.2226562-0.8621292-3.5831985-0.4545364-3.6751785-2.5264969c-0.2488403-2.8961258-1.8826981-5.2313385-2.1351395-8.1563339
				C96.7533722,65.8117752,100.7134628,66.7747269,103.1568909,65.368042z M107.1278534,170.962265
				c-1.2948074,1.8610382-1.7744217,3.8897858-2.8185501,6.0141754c0.0793457,0.5462799-0.5554886,0.5084991-0.9268875,0.735611
				c-0.4057617,0.5536499-0.9612427,0.7789917-1.5526733,0.7789917c-1.0802078-0.5626221-2.0431595,0.3661499-3.0007401-0.5247192
				c-1.1865921-1.3362579-2.0413284-2.9609528-2.3353348-4.6687164c-0.8564529-2.6707306,0.2182617-5.1862946,0.4779053-7.849762
				c0.4779053-1.5328369,1.0784302-3.1954956,1.9999466-4.6381226c0.3317261-0.7448273,0.5102539-1.5634308,1.3686523-1.9349518
				c0.3858643-0.3353271,0.8566284-0.2541504,1.1162796-0.4381104c1.2189941-0.043396,2.5606079-0.8601685,3.6787186,0.4434814
				c0.1803589,0.7376099,0.8439331,1.1109619,1.1793823,1.8177032c0.4454346,2.3787231,1.509346,4.8221436,1.6643753,7.0023346
				C107.7589569,168.7731171,107.3171844,169.7811127,107.1278534,170.962265z M180.1131592,117.3285141l0.326416,0.2632446
				c1.5617065,0.7827225,3.1882477,0.854805,4.7878571,1.5183792c1.9331665,0.4075317,3.4046173,2.2252884,4.2899933,3.8158646
				c0.3029785,1.5615921,0.3751221,3.4207306,0.5663452,5.0042267c-0.0109253,2.4000931,1.9925537,6.7839584-1.8592529,7.928978
				c-2.0341339,0.0811768-3.7382355-0.9989624-5.5145416-1.772583c-0.9720612-0.1533203-1.8592682-1.0422516-2.596817-1.5617218
				c-2.7896729-1.4065552-2.2252197-4.8147659-3.4136505-7.1844025c-0.1135864-1.6283569-0.4850464-3.4442215-0.7393188-5.1574249
				c-0.1533203-0.746521,0.2199707-1.3722534,0.4815063-2.1096802
				C177.3649292,116.9660873,178.8147583,117.000267,180.1131592,117.3285141z M324.6219482,139.6232147h22.0979614v-9.0663452
				h-22.0979614v-10.5136032h23.3205566v-9.0661621h-33.2027588v49.4505539h34.425354v-9.0662842h-24.5431519V139.6232147z
				 M280.7457275,140.0320282h9.8597412v10.3071289c-2.7629395,1.4696045-6.4267578,2.2468262-10.6289062,2.2468262
				c-9.3416748,0-15.8635254-7.0826416-15.8635254-17.2236938c0-9.5845261,6.6696167-16.5436325,15.8635254-16.5436325
				c4.7042236,0,9.2342529,1.6842041,12.1166382,4.5038452l0.4696655,0.4594727l7.2687988-7.3497925l-0.5181274-0.4615479
				c-4.6879272-4.18396-11.0379028-6.2182617-19.4058228-6.2182617c-15.359436,0-26.0857086,10.7543945-26.0857086,26.1544113
				c0,15.1591187,10.7262726,25.7454224,26.0857086,25.7454224c7.4246826,0,14.2319946-1.6273804,20.2316895-4.8356934
				l0.3482056-0.1882935v-25.6623535h-19.7418823V140.0320282z M443.4171143,110.9771042h-19.6264648v49.4505539h18.6063843
				c12.6793823,0,26.1543579-8.6655273,26.1543579-24.7253418
				C468.5513916,118.6223679,455.9286499,110.9771042,443.4171143,110.9771042z M439.4072876,151.3613739h-5.7344971v-31.3181076
				h7.161499c7.9510498,0,17.4261475,2.7164917,17.4261475,15.65905
				C458.260437,149.8351288,445.0750122,151.3613739,439.4072876,151.3613739z M480.6276855,160.4276581h9.8820801v-49.4505539
				h-9.8820801V160.4276581z M522.9821777,130.759201c-4.7709961-1.538208-8.5400391-2.7506714-8.5400391-6.4104538
				c0-4.0767212,3.7346802-5.5300903,7.2283325-5.5300903c3.3723145,0,6.3235474,1.3198242,7.8944092,3.5322266l0.463501,0.6497803
				l7.258667-7.6514282l-0.4797363-0.4534302c-4.4956665-4.2506714-10.2321777-5.1434326-14.2542114-5.1434326
				c-9.1594849,0-18.4017639,4.7021484-18.4017639,15.2075806c0,10.1269455,7.7383423,12.6370773,13.9545593,14.6550827
				c4.7710571,1.5485229,8.8903198,2.8845825,8.8903198,7.0341187c0,3.855896-4.0059204,5.9368286-7.7729492,5.9368286
				c-3.659668,0-7.0137329-1.7711792-8.9690857-4.7365723l-0.4371948-0.6619263l-7.4692383,7.234375l0.3947144,0.4695435
				c4.6959839,5.5889282,11.4447327,6.7608032,16.2763977,6.7608032c11.0964966,0,18.2662964-6.2890625,18.2662964-16.0233765
				C537.2851562,135.3622894,529.3563232,132.8097992,522.9821777,130.759201z M385.8149414,109.7482834
				c-0.2024536,0-0.402832,0-0.5950928,0.0040894c-15.3595581,0-26.0856934,10.7543945-26.0856934,26.1544113
				c0,15.1591187,10.7261353,25.7454224,26.0856934,25.7454224h0.012146
				c15.7178345-0.2833252,26.2778931-10.7402344,26.2778931-26.0187378
				C411.5098877,120.1484909,401.1825562,109.7482834,385.8149414,109.7482834z M385.2886963,152.5859833
				c-9.3415527,0-15.8635254-7.0826416-15.8635254-17.2236938c0-9.5845261,6.6697388-16.5436325,15.8635254-16.5436325
				c9.2302856,0,15.932312,6.9591064,15.932312,16.5436325
				C401.2210083,145.5033417,394.6687012,152.5859833,385.2886963,152.5859833z"/>
		</g>
	</g>
</g>
</svg>