<svg xmlns="http://www.w3.org/2000/svg" width="27.634" height="27.199" viewBox="0 0 27.634 27.199">
  <g id="Group_20436" data-name="Group 20436" transform="translate(-970 -2990.462)">
    <g id="Group_20435" data-name="Group 20435" transform="translate(970 2990.462)">
      <path id="Path_17257" data-name="Path 17257" d="M3.057,11.5a5.681,5.681,0,0,1,.8.348,1.8,1.8,0,0,1,.854,1.61c0,1.71.019,3.42,0,5.129A1.9,1.9,0,0,1,2.088,20.4,2.876,2.876,0,0,1,.006,17.649C0,16.577,0,15.5.007,14.432A2.8,2.8,0,0,1,1.518,11.88a.335.335,0,0,0,.2-.317A12.009,12.009,0,0,1,4.357,4.6,11.632,11.632,0,0,1,10.819.4,11.738,11.738,0,0,1,21.654,2.911a11.854,11.854,0,0,1,4.087,7.082c.1.524.118,1.063.19,1.592a.41.41,0,0,0,.165.268,2.887,2.887,0,0,1,1.536,2.658c0,1.017,0,2.033,0,3.05a2.816,2.816,0,0,1-1.5,2.587.346.346,0,0,0-.189.352,16.317,16.317,0,0,1-.081,2.072,3.988,3.988,0,0,1-3.8,3.281c-.624.011-1.248.007-1.871,0a.307.307,0,0,0-.334.2,1.91,1.91,0,0,1-1.774,1.143c-.724.011-1.45.013-2.174,0A2,2,0,0,1,14,25.233a1.954,1.954,0,0,1,1.7-2.024,19.253,19.253,0,0,1,2.662,0,1.761,1.761,0,0,1,1.486,1.087.321.321,0,0,0,.344.228c.687-.023,1.377.007,2.062-.046a2.653,2.653,0,0,0,2.353-2.543c.009-.471,0-.941,0-1.426-.137-.034-.269-.06-.4-.1A1.84,1.84,0,0,1,22.932,18.6c-.014-1.719,0-3.438,0-5.157a1.885,1.885,0,0,1,1.628-1.9,10.765,10.765,0,0,0-21.5-.039m.31,4.519c0-.859,0-1.718,0-2.577a.508.508,0,0,0-.566-.559,1.52,1.52,0,0,0-1.463,1.533q-.029,1.607,0,3.214a1.522,1.522,0,0,0,1.384,1.525c.444.023.645-.165.646-.614,0-.84,0-1.681,0-2.521m20.9.028c0,.85,0,1.7,0,2.549a.5.5,0,0,0,.563.56A1.512,1.512,0,0,0,26.3,17.626c.021-1.071.019-2.143,0-3.214a1.527,1.527,0,0,0-1.272-1.519.578.578,0,0,0-.765.63c.025.84.007,1.681.008,2.521M17.044,25.86c.33,0,.66.005.99,0a.664.664,0,0,0,.69-.669.641.641,0,0,0-.678-.672q-1-.009-2.007,0a.639.639,0,0,0-.69.659.666.666,0,0,0,.7.683c.33.005.66,0,.99,0" transform="translate(0 0)" fill="#fff"/>
      <path id="Path_17258" data-name="Path 17258" d="M94.506,98.636a2.822,2.822,0,0,1-2.7-1.994,3.183,3.183,0,0,1-.146-.978c-.014-1.829-.009-3.658-.006-5.488A2.84,2.84,0,0,1,94.6,87.211q4.14,0,8.281,0a2.838,2.838,0,0,1,2.953,2.956q.007,2.744,0,5.488a2.838,2.838,0,0,1-2.945,2.963c-1.1,0-2.2,0-3.3,0a.574.574,0,0,0-.457.185c-.755.768-1.51,1.536-2.284,2.285a1.341,1.341,0,0,1-2.175-.362,1.846,1.846,0,0,1-.154-.691c-.023-.459-.007-.92-.007-1.394m1.352,1.536c.115-.111.186-.177.255-.246.768-.768,1.542-1.531,2.3-2.309a1.06,1.06,0,0,1,.827-.348c1.22.012,2.44.01,3.66,0a1.468,1.468,0,0,0,1.583-1.586q.007-2.772,0-5.544a1.448,1.448,0,0,0-1.559-1.572q-1.981,0-3.963,0c-1.5,0-2.99,0-4.485,0a1.41,1.41,0,0,0-1.465,1.377q-.024,2.966,0,5.932a1.4,1.4,0,0,0,1.246,1.362c.281.032.567.021.851.031a.659.659,0,0,1,.731.739c.008.61,0,1.22,0,1.83,0,.088.009.176.017.329" transform="translate(-84.921 -80.749)" fill="#fff"/>
      <path id="Path_17259" data-name="Path 17259" d="M175.862,154.257a.991.991,0,1,1,.974-1,1.007,1.007,0,0,1-.974,1" transform="translate(-162.033 -140.993)" fill="#fff"/>
      <path id="Path_17260" data-name="Path 17260" d="M220.553,153.26a.985.985,0,0,1-.969,1,.991.991,0,0,1-.011-1.983.984.984,0,0,1,.98.986" transform="translate(-202.551 -140.994)" fill="#fff"/>
      <path id="Path_17261" data-name="Path 17261" d="M131.3,153.261a.983.983,0,0,1,.979-.986.991.991,0,0,1-.01,1.983.984.984,0,0,1-.969-1" transform="translate(-121.66 -140.994)" fill="#fff"/>
    </g>
  </g>
</svg>
