<svg xmlns="http://www.w3.org/2000/svg" width="27.187" height="27.24" viewBox="0 0 27.187 27.24">
  <g id="Group_20434" data-name="Group 20434" transform="translate(-1355 -2996.503)">
    <path id="Union_11" data-name="Union 11" d="M23.955,27.232a.568.568,0,0,1-.64-.606c.012-.344.253-.545.661-.547.675,0,1.35,0,2.058,0,0-.723,0-1.4,0-2.077,0-.4.213-.642.562-.645a.563.563,0,0,1,.582.631q.015,1.3,0,2.593a.578.578,0,0,1-.635.649q-.639.009-1.277.009Q24.611,27.24,23.955,27.232Zm-10.744,0a.591.591,0,0,1-.656-.661q-.015-1.282,0-2.564c0-.417.239-.657.6-.649s.556.252.557.683c0,.666,0,1.333,0,2.038.706,0,1.372,0,2.037,0,.429,0,.673.2.679.558s-.234.59-.653.594-.866.007-1.3.007S13.632,27.237,13.211,27.232Zm9.133-2.346a1.156,1.156,0,0,1-1.131-1.165c-.012-.423-.009-.846,0-1.269a1.162,1.162,0,0,1,1.161-1.2c.431-.018.865-.016,1.3,0a1.168,1.168,0,0,1,1.177,1.214c0,.208,0,.414,0,.62h.02A7.3,7.3,0,0,1,24.8,24a1.1,1.1,0,0,1-1.069.89q-.35.011-.7.011T22.344,24.886Zm.043-1.178h1.278V22.43H22.387Zm-6.3,1.181A1.162,1.162,0,0,1,14.9,23.694c0-.207,0-.413,0-.62s0-.413,0-.62a1.158,1.158,0,0,1,1.156-1.2c.431-.019.864-.016,1.3,0a1.159,1.159,0,0,1,1.178,1.181c.014.423.014.847,0,1.27a1.165,1.165,0,0,1-1.232,1.185l-.67,0Q16.355,24.892,16.086,24.889Zm-.008-1.182h1.273V22.425H16.078ZM19.3,21.863c-.009-.431,0-.862,0-1.338H16.907c-.441,0-.883,0-1.324,0a.588.588,0,1,1-.017-1.161c1.119-.006,2.238,0,3.356,0h.385c0-.494-.01-.955,0-1.413a.5.5,0,0,1,.455-.5.526.526,0,0,1,.609.3.632.632,0,0,1,.06.283q.006,1.916,0,3.833a.569.569,0,0,1-.551.606h-.019A.576.576,0,0,1,19.3,21.863Zm2.549-1.339a.6.6,0,0,1-.638-.56.588.588,0,0,1,.6-.6q1.208-.022,2.417,0a.591.591,0,0,1,.609.593.6.6,0,0,1-.634.564c-.393.006-.786,0-1.179,0h-.707Q22.088,20.526,21.852,20.523Zm-11.179,0q-4.407,0-8.814,0A1.717,1.717,0,0,1,0,18.693Q0,10.265,0,1.836A1.711,1.711,0,0,1,1.833,0q8.4-.01,16.8,0a1.732,1.732,0,0,1,1.851,1.871q0,4.414,0,8.827a1.2,1.2,0,0,1-.058.4.565.565,0,0,1-1.048-.02,1.406,1.406,0,0,1-.053-.434q0-4.354,0-8.709c0-.617-.167-.783-.786-.783H12.8v.383q0,1.919,0,3.838a1.177,1.177,0,0,1-1.333,1.342c-.835,0-1.671.005-2.506,0A1.141,1.141,0,0,1,7.7,5.44V1.174c-.117-.006-.211-.014-.306-.014H1.907c-.57,0-.757.188-.757.762q0,8.34,0,16.68c0,.578.179.758.753.758q4.349,0,8.7,0a1.681,1.681,0,0,1,.38.03.54.54,0,0,1,.44.605.565.565,0,0,1-.54.525c-.031,0-.062,0-.093,0ZM8.873,5.57h2.76V1.178H8.873ZM24.251,18.644a.569.569,0,0,1-.566-.62c-.007-.628,0-1.257,0-1.933-.661,0-1.286,0-1.911,0a.577.577,0,0,1-.637-.52.559.559,0,0,1,.569-.64q1.28-.019,2.56,0a.567.567,0,0,1,.578.586q.017,1.268,0,2.535a.562.562,0,0,1-.58.593ZM21.6,18.2a2.7,2.7,0,0,1,0-.787.536.536,0,0,1,.594-.453.578.578,0,0,1,.534.534,3.146,3.146,0,0,1,0,.323h0a2.457,2.457,0,0,1,0,.323.56.56,0,0,1-.527.5h-.047A.516.516,0,0,1,21.6,18.2Zm-5.494.364A1.168,1.168,0,0,1,14.9,17.322c0-.2,0-.394,0-.59s0-.374,0-.561a1.167,1.167,0,0,1,1.229-1.245q.589,0,1.179,0a1.161,1.161,0,0,1,1.221,1.165c.018.432.017.866,0,1.3a1.161,1.161,0,0,1-1.186,1.174c-.2.006-.4.008-.6.008S16.314,18.569,16.1,18.564Zm-.02-1.183h1.268V16.1H16.081Zm-12.54.293c-.436,0-.687-.23-.68-.6.007-.353.255-.56.682-.561q1.147,0,2.3,0c.755,0,1.511,0,2.266,0,.411,0,.682.223.692.562s-.267.6-.693.6q-1.141,0-2.281,0T3.541,17.674Zm15.805-1.427a3.549,3.549,0,0,1,0-.846.56.56,0,0,1,.583-.473.6.6,0,0,1,.549.554c.01.116,0,.235,0,.352s.01.236,0,.352a.6.6,0,0,1-.558.545H19.9A.564.564,0,0,1,19.347,16.247Zm6.721-.162a1.064,1.064,0,0,1-.032-.319c0-.665,0-1.331,0-2.029-.713,0-1.379,0-2.046,0-.427,0-.67-.206-.675-.564s.234-.585.658-.59c.853-.009,1.707-.011,2.56,0a.577.577,0,0,1,.646.637c.011.874.009,1.748,0,2.622a.565.565,0,0,1-.482.609.725.725,0,0,1-.09.006A.545.545,0,0,1,26.068,16.085ZM12.554,15.8q-.012-1.267,0-2.533a.6.6,0,0,1,.666-.683q1.28-.016,2.56,0a.573.573,0,0,1,.644.6c-.01.344-.251.548-.658.549-.657,0-1.314,0-1.972.005a.446.446,0,0,0-.086.031c0,.676,0,1.344,0,2.011,0,.427-.207.671-.564.676h-.009C12.782,16.458,12.558,16.216,12.554,15.8Zm-9.038-.627c-.421,0-.661-.226-.656-.584s.246-.557.678-.558q1.147,0,2.295,0c.765,0,1.529,0,2.294,0a.577.577,0,1,1,.007,1.14q-1.193,0-2.387,0Zm2.294-2.5c-.765,0-1.53,0-2.295,0-.408,0-.647-.206-.655-.551s.23-.588.65-.59q2.309-.008,4.618,0c.413,0,.676.241.667.583s-.271.557-.69.558H5.811Z" transform="translate(1355 2996.503)" fill="#fff"/>
  </g>
</svg>
