<svg xmlns="http://www.w3.org/2000/svg" width="30.976" height="22.758" viewBox="0 0 30.976 22.758">
  <g id="Group_20437" data-name="Group 20437" transform="translate(-585 -2998.646)">
    <path id="Path_17254" data-name="Path 17254" d="M22.531,4.531c.658.036,1.259.067,1.859.1.338.019.676.031,1.012.064A1.75,1.75,0,0,1,26.843,5.74q1.957,3.906,3.894,7.823a2.036,2.036,0,0,1-.761,2.722c-1.779,1.05-3.568,2.078-5.352,3.118a1.762,1.762,0,0,1-2.093-.178c0,.4.017.719,0,1.037a2.545,2.545,0,0,1-2.441,2.488q-8.811.013-17.622,0A2.549,2.549,0,0,1,.025,20.3C.012,20.146,0,19.989,0,19.832q0-8.451,0-16.9A2.734,2.734,0,0,1,1.515.232,2.136,2.136,0,0,1,2.421.01Q11.268-.009,20.116,0a2.534,2.534,0,0,1,2.409,2.478c.036.674.006,1.353.006,2.048M8.034,1.337c-1.9,0-3.732-.019-5.568.009a1.3,1.3,0,0,0-1.2,1.433q0,8.588,0,17.176a1.324,1.324,0,0,0,1.331,1.462q8.684.008,17.368,0A1.328,1.328,0,0,0,21.3,19.959c.005-.85.012-1.7-.006-2.549a1.634,1.634,0,0,0-.153-.664q-1.435-2.92-2.9-5.824a2.271,2.271,0,0,1,.049-2.294c.551-.967,1.092-1.94,1.613-2.926A2.083,2.083,0,0,1,21.3,4.523c0-.528-.029-1.052.006-1.571a1.42,1.42,0,0,0-1.486-1.629c-1.631.033-3.263.01-4.895.01h-.4c0,1.892,0,3.722,0,5.551a.812.812,0,0,1-.359.8c-.308.175-.554.028-.8-.173-.689-.571-1.382-1.136-2.089-1.715l-1.1.907c-.366.3-.726.608-1.1.895-.46.352-.967.1-1.038-.5a3.029,3.029,0,0,1-.007-.353q0-2.216,0-4.431ZM22.427,5.872c0-.006,0-.013,0-.019-.241,0-.483.006-.724,0a.64.64,0,0,0-.628.371q-.875,1.6-1.762,3.193a.767.767,0,0,0-.018.774q1.926,3.856,3.847,7.714a.569.569,0,0,0,.882.3q2.665-1.538,5.321-3.094a.664.664,0,0,0,.261-.986Q27.7,10.28,25.78,6.442a.669.669,0,0,0-.6-.42c-.917-.042-1.833-.1-2.75-.15m-9.207-.2V1.36H9.338V5.674c.513-.42.982-.807,1.455-1.189.387-.314.585-.312.974,0,.471.382.941.768,1.453,1.186" transform="translate(585.001 2998.646)" fill="#fff"/>
    <path id="Path_17255" data-name="Path 17255" d="M247.208,124.234c-.075.091-.187.336-.379.443-1.014.566-2.044,1.1-3.076,1.638a.68.68,0,0,1-.954-.265.661.661,0,0,1,.319-.929c1.011-.544,2.025-1.085,3.047-1.61.524-.269,1.049.032,1.042.722" transform="translate(365.061 2888.142)" fill="#fff"/>
    <path id="Path_17256" data-name="Path 17256" d="M235.258,101.973a1.455,1.455,0,0,1-.38.439c-1.013.566-2.042,1.105-3.073,1.64a.665.665,0,0,1-.953-.264.653.653,0,0,1,.317-.925c1.01-.545,2.023-1.087,3.043-1.613.523-.269,1.054.035,1.046.724" transform="translate(375.737 2908.076)" fill="#fff"/>
  </g>
</svg>
