<svg xmlns="http://www.w3.org/2000/svg" width="28.71" height="28.714" viewBox="0 0 28.71 28.714">
  <g id="Group_20438" data-name="Group 20438" transform="translate(0 0)">
    <path id="Union_16" data-name="Union 16" d="M13.17,28.657a14.389,14.389,0,0,1-4.98-1.328,14.7,14.7,0,0,1-3.953-2.8c-.051.465-.1.915-.15,1.363-.007.058-.013.115-.019.172-.027.248-.055.5-.092.757a.715.715,0,0,1-.683.677c-.025,0-.051,0-.077,0a.718.718,0,0,1-.615-.848c.051-.53.112-1.067.169-1.586l.019-.173q.051-.461.1-.922c.039-.34.079-.694.118-1.04.064-.579.418-.7.7-.7.038,0,.079,0,.12.006.787.076,1.586.16,2.359.242l.887.093.145.014c.122.011.249.023.377.043a.83.83,0,0,1,.558.325.64.64,0,0,1,.1.492.7.7,0,0,1-.742.571A1.264,1.264,0,0,1,7.392,24c-.624-.072-1.257-.142-1.875-.21A12.4,12.4,0,0,0,12.6,27.148a15.851,15.851,0,0,0,1.883.116,12.555,12.555,0,0,0,9.986-4.846,12.335,12.335,0,0,0,2.774-6.752A12.792,12.792,0,0,0,26.42,9.6c-.017-.044-.038-.1-.057-.15A.707.707,0,0,1,27,8.435a.763.763,0,0,1,.688.56,13.991,13.991,0,0,1,.986,6.243A14.121,14.121,0,0,1,21.52,26.8a13.506,13.506,0,0,1-7.014,1.911C14.069,28.714,13.618,28.695,13.17,28.657Zm.823-5.92c-1.415-.673-2.85-1.364-4.238-2.032C8.7,20.2,7.6,19.671,6.527,19.155a.907.907,0,0,1-.575-.891c.006-2.506,0-5.056,0-7.521v-.508a.766.766,0,0,1,.457-.744L9.287,8.107c1.37-.659,2.786-1.34,4.18-2.008.13-.062.234-.114.325-.161a1.319,1.319,0,0,1,.592-.207,1.328,1.328,0,0,1,.593.207c.089.044.189.094.314.154,1.178.562,2.373,1.138,3.529,1.694,1.129.543,2.3,1.105,3.446,1.655a.851.851,0,0,1,.528.853c-.01.972-.008,1.96-.007,2.917q0,.533,0,1.064v.271h0c0,.267,0,.533,0,.8,0,.945,0,1.921.006,2.881a.923.923,0,0,1-.571.926c-1.078.515-2.172,1.041-3.229,1.55-1.4.671-2.839,1.365-4.261,2.041a.86.86,0,0,1-.355.072A.91.91,0,0,1,13.993,22.737ZM7.361,13c0,1.621,0,3.3-.005,4.947,0,.063,0,.065.091.109.666.316,1.34.641,1.993.956l.864.416,2.651,1.275.725.348V19.689c0-1.754,0-3.568.007-5.351a.224.224,0,0,0,0-.031.755.755,0,0,0-.079-.042c-1.221-.585-2.462-1.182-3.662-1.761l-1.393-.67L7.5,11.33l-.135-.065Q7.361,12.135,7.361,13Zm12.445-.983c-1.539.742-3.13,1.51-4.7,2.259a.185.185,0,0,0-.042.025.309.309,0,0,0-.005.07c0,1.653,0,3.335,0,4.96q0,.857,0,1.714l1.428-.689c1.586-.763,3.227-1.554,4.843-2.325A.17.17,0,0,0,21.39,18a.246.246,0,0,0,.009-.089c0-1.331,0-2.683,0-3.991V11.255ZM18.133,9.108c-.523.243-1.053.5-1.565.746l-.505.244-3.928,1.889.092.044c.691.334,1.4.677,2.112,1a.1.1,0,0,0,.023,0A.376.376,0,0,0,14.5,13c.853-.4,1.718-.819,2.554-1.222l.777-.375,2.333-1.122.308-.148-.123-.059c-.717-.346-1.394-.674-2.082-.995h-.017A.3.3,0,0,0,18.133,9.108Zm-3.87-1.857c-.212.114-.432.216-.644.314l-.307.145L9.318,9.633l-1.036.5.212.1c.657.317,1.278.615,1.9.925a.277.277,0,0,0,.129.038.308.308,0,0,0,.136-.04c1.466-.709,2.958-1.427,4.4-2.122l1.559-.751L16.4,8.178c-.662-.318-1.287-.617-1.919-.931a.252.252,0,0,0-.108-.033A.235.235,0,0,0,14.262,7.251ZM1.028,19.642c-.054-.168-.111-.339-.165-.5a16.979,16.979,0,0,1-.582-2.045A13.831,13.831,0,0,1,1.4,8.235,14.669,14.669,0,0,1,5.256,3.208,13.91,13.91,0,0,1,10.94.447,15.95,15.95,0,0,1,14.6,0a14.011,14.011,0,0,1,9.9,4.219c.072-.641.14-1.25.209-1.858.019-.171.038-.339.06-.51a.66.66,0,0,1,.677-.625l.053,0A.69.69,0,0,1,26,1.455a.666.666,0,0,1,.149.5c-.052.618-.114,1.223-.191,1.942-.074.7-.154,1.369-.222,1.936a.679.679,0,0,1-.715.691c-.045,0-.092,0-.143-.008-.625-.06-1.257-.131-1.87-.2l-.6-.067-.126-.014c-.369-.041-.751-.083-1.127-.131A.69.69,0,1,1,21.2,4.73c.031,0,.062,0,.093,0,.459.043.924.095,1.374.145l.533.059.056.006a12.134,12.134,0,0,0-6.77-3.33,16.693,16.693,0,0,0-2.263-.161C9.723,1.453,6.079,3.5,3.4,7.531a12.189,12.189,0,0,0-1.96,7.348,13.255,13.255,0,0,0,.86,4.2.959.959,0,0,1-.038.755.635.635,0,0,1-.552.324A.723.723,0,0,1,1.028,19.642ZM11.2,16.235c-.38-.176-.761-.361-1.129-.54l-.492-.238-.191-.09c-.135-.063-.275-.129-.412-.2a.744.744,0,0,1-.379-.448.641.641,0,0,1,.068-.5.678.678,0,0,1,.587-.372.738.738,0,0,1,.323.078l.375.177c.613.29,1.247.589,1.864.9a.928.928,0,0,1,.319.306c.011.017.028.038.034.045l.071.08v.106a.723.723,0,0,1-.7.777A.8.8,0,0,1,11.2,16.235Z" transform="translate(0 0)" fill="#fff"/>
  </g>
</svg>
