<svg xmlns="http://www.w3.org/2000/svg" width="21.28" height="17.24" viewBox="0 0 21.28 17.24">
  <path id="Icon_awesome-twitter" data-name="Icon awesome-twitter" d="M17.6,7.351c.012.174.012.349.012.523A11.36,11.36,0,0,1,6.173,19.313,11.36,11.36,0,0,1,0,17.508a8.316,8.316,0,0,0,.971.05A8.051,8.051,0,0,0,5.962,15.84,4.027,4.027,0,0,1,2.2,13.052a5.069,5.069,0,0,0,.759.062,4.252,4.252,0,0,0,1.058-.137A4.021,4.021,0,0,1,.8,9.032v-.05a4.049,4.049,0,0,0,1.817.51A4.026,4.026,0,0,1,1.369,4.115,11.427,11.427,0,0,0,9.658,8.322a4.539,4.539,0,0,1-.1-.921A4.024,4.024,0,0,1,16.516,4.65a7.915,7.915,0,0,0,2.551-.971A4.009,4.009,0,0,1,17.3,5.9a8.059,8.059,0,0,0,2.315-.622A8.642,8.642,0,0,1,17.6,7.351Z" transform="translate(0.271 -2.573)" fill="#1da1f2" stroke="#1da1f2" stroke-width="1"/>
</svg>
