<svg xmlns="http://www.w3.org/2000/svg" width="16.107" height="16.106" viewBox="0 0 16.107 16.106">
  <path id="Icon_awesome-linkedin-in" data-name="Icon awesome-linkedin-in" d="M3.605,16.107H.266V5.354H3.605ZM1.934,3.887A1.943,1.943,0,1,1,3.868,1.935,1.95,1.95,0,0,1,1.934,3.887ZM16.1,16.107H12.771V10.872c0-1.248-.025-2.847-1.736-2.847-1.736,0-2,1.355-2,2.758v5.325H5.7V5.354H8.9V6.821h.047a3.509,3.509,0,0,1,3.16-1.737c3.38,0,4,2.225,4,5.116v5.907Z" transform="translate(0 -0.001)" fill="#0a66c2"/>
</svg>
