<svg id="logo" xmlns="http://www.w3.org/2000/svg" width="91.255" height="35.124" viewBox="0 0 91.255 35.124">
  <g id="Group_27788" data-name="Group 27788">
    <path id="Path_49487" data-name="Path 49487" d="M19.454.076a2.367,2.367,0,0,1-.122.35c-.259.457-.518.974-.792,1.4a4.173,4.173,0,0,1-.441.7c-.046.2-.639,1.218-.761,1.674a7.452,7.452,0,0,1-.913,1.537,2.763,2.763,0,0,1-1.02.9c-.228.244-.518.487-.761.731-.061.107.061.167.107.213a5.272,5.272,0,0,1,.868.776,4.539,4.539,0,0,1,.655.67,6.669,6.669,0,0,1,.792.944,11,11,0,0,1,.639.989c.167.259.335.533.487.807.3.046.518-.289.639-.457a10.521,10.521,0,0,0,1.081-.929c1.461-1.34,2.74-2.6,4.186-3.882a2.191,2.191,0,0,1,.655-.518.4.4,0,0,1,.167.274c-.046.32-.107.655-.167.944-.3.929-.67,1.766-1.02,2.664-.076.244-.213.441-.3.67a3.79,3.79,0,0,0-.289.457c-.152.152-.2.426-.3.609-.213.091-.213.3-.335.518a6.019,6.019,0,0,1-.426.655c-.289.289-1.02.868-1.02.868a8.391,8.391,0,0,1-1.7.822,2.385,2.385,0,0,1-.655.228c-.487,0-.913.046-1.431.091-.137.046-.457,0-.518.152a11.072,11.072,0,0,0-.259,1.583c0,.213-.046.381-.03.624a12.874,12.874,0,0,0-.137,1.34c0,.107-.137,2.009-.274,2.816-.046.122,0,.3-.076.441-.03.563-.061,1.126-.076,1.629s-.167.913-.213,1.324a3.053,3.053,0,0,0-.3,1.2c-.076.122-.152.289-.3.3a.421.421,0,0,1-.2.046c-.107-.046-.122-.107-.167-.2-.152-.639-.381-1.248-.578-1.827-.061-.213-.107-.457-.183-.685a4.6,4.6,0,0,1-.335-1.7A19.7,19.7,0,0,1,13.4,19c.03-.563-.03-1.111,0-1.674s.167-1.2.213-1.811a7.629,7.629,0,0,0,.122-2.04c-.046-.259-.107-.228-.122-.381-.03-.152-.274-.289-.381-.518a22.722,22.722,0,0,1-2.451-2.238,1.794,1.794,0,0,1-.289-.167c-.381.213-.746.518-1.142.731A18.078,18.078,0,0,0,6.9,12.6a5.147,5.147,0,0,1-1.431.822,4.192,4.192,0,0,1-.578.3,26.211,26.211,0,0,0-2.679,0,2.938,2.938,0,0,1-.518,0,1.018,1.018,0,0,1-.289-.213.534.534,0,0,1,.244-.35,6.087,6.087,0,0,0,1.751-.655A3.508,3.508,0,0,0,4.551,11.8a1.245,1.245,0,0,1,.381-.3c.137-.32.518-.518.715-.822.289-.487.715-.776,1.02-1.248A11.985,11.985,0,0,1,8.2,7.915a6.6,6.6,0,0,1,1.324-.381,22.573,22.573,0,0,0,2.222-.776,12.057,12.057,0,0,0,.929-1.05c.822-.883,1.857-1.416,2.8-2.3.441-.457.883-1.05,1.294-1.537.335-.518.944-1.248,1.431-1.872h-.624A17.565,17.565,0,0,0,6.15,30.915a2.539,2.539,0,0,0,.213-.289c-.518-1.568-1.629-2.8-1.7-4.414A22.648,22.648,0,0,1,4.521,22.7a12.265,12.265,0,0,1,.67-3.288,37.771,37.771,0,0,1,3-4.384l.061-.046a1.334,1.334,0,0,1,.578.213c.076.076,0,.213.076.289A5.22,5.22,0,0,1,8.8,16c-.03.137-.167.487-.213.746a3.642,3.642,0,0,0-.518.959l-.046.167C7.733,18.8,7.215,19.7,7,20.641A7.574,7.574,0,0,0,6.941,22.3c-.015.4-.015.776,0,1.172A8.6,8.6,0,0,0,7.276,25.1c.137.289.2.518.335.852a17.285,17.285,0,0,0,.578,1.7c.046.107.091.578.4.67a4.427,4.427,0,0,0,.9,0,1.614,1.614,0,0,0,.807.076,28.585,28.585,0,0,0,3.958.091c.639-.107,1.218-.213,1.872-.289.487.046,1.02,0,1.537,0a6.16,6.16,0,0,1,.913-.076,6.837,6.837,0,0,1,1.248,0,15.019,15.019,0,0,0,1.857.122c.076,0,.061.107.061.152-.2.091,0,.289-.137.426-.9.441-1.8.776-2.664,1.172l-.061.061c-.624.411-1.416.426-1.994.852a.992.992,0,0,1-.518.046,3.758,3.758,0,0,0-.913.289c-1.4.274-2.8.578-4.2.822-.046.03-.365.213-.411.381-.076.046-.046.167-.122.213a3.14,3.14,0,0,0-.167.989,17.548,17.548,0,0,0,18.738-3.014,18.505,18.505,0,0,0-.381-2.04c-.639-1.02-1.02-2.04-1.629-3.06-.137-.518-.457-.929-.609-1.461-.152-.167-.2-.518-.365-.67-.518-.046-1.02.122-1.537.122a2.929,2.929,0,0,1-.685.274c-.228-.046-.518.061-.731,0-.457.061-1.629.183-1.781.213-.487.061-1.02.122-1.492.213-.213,0-.32.061-.578.076a7.271,7.271,0,0,1-.807-.091,8.224,8.224,0,0,1-1.05.122c-.091-.076-.244-.167-.244-.289s-.107-.213,0-.274c.335-.061.609-.289.944-.365.091-.091.518-.076.487-.137a11.749,11.749,0,0,0,2.222-.837c.213-.03.4-.167.639-.2.959-.35,1.842-.792,2.816-1.142a36.5,36.5,0,0,0,3.668-1.4,1.072,1.072,0,0,0,.655-.289,6.088,6.088,0,0,0,.67-1.081c.441-.518.578-1.187,1.157-1.644a7.382,7.382,0,0,1,.441-.746,2.327,2.327,0,0,0-.289-1.02,12.537,12.537,0,0,1-.868-1.446,6.056,6.056,0,0,1-.959-2.633c-.213-.35-.594-.457-.868-.761h-.046a4.673,4.673,0,0,1-.518-.441,4.54,4.54,0,0,1-.807-.9,1.182,1.182,0,0,1-.4-.837c.457-.091.913,0,1.34-.061.183.076.4-.046.578.046a3.1,3.1,0,0,1,.548.913c1.248,1.811,2.77,3.273,4.049,4.993.244.137.122.518.228.7.107.457.137.929.213,1.37.213.913-.2,1.766-.122,2.679,0,0-.213,2.085-.335,3.029-.2.761-.152,1.6-.381,2.375-.107.487-.289,1.02-.381,1.507.046.213-.183.365-.122.639a3.257,3.257,0,0,0,.807.381,17.517,17.517,0,0,0-6.134-24A17.768,17.768,0,0,0,19.454.076M10.944,3.212c.213-.122.411.107.624.137a3,3,0,0,1,.381.944c.213.3-.046.624-.046.974-.107.228-.259.457-.381.67-.228.122-.441.35-.715.183-.076.03-.274-.061-.3-.061-.244-.183-.731-.091-.746-.518-.046-.594-.381-1.066-.441-1.659.32-.578,1.142-.4,1.629-.67m.807,21.524a8.914,8.914,0,0,0-.578,1.218c0,.122-.122.107-.2.152a.323.323,0,0,1-.3.152c-.213-.122-.411.076-.609-.107a2.008,2.008,0,0,1-.487-.944,4.039,4.039,0,0,1,.091-1.6,4.275,4.275,0,0,1,.4-.944c.061-.152.107-.32.289-.381.076-.061.167-.046.228-.091.244,0,.518-.183.746.091.046.152.167.213.244.381.137.472.244.944.335,1.431-.03.183-.122.381-.152.639M26.608,13.791l.061.046c.32.152.655.167.974.3a1.457,1.457,0,0,1,.868.776c.061.32.076.7.122,1.02,0,.518.4,1.385-.381,1.629a2.524,2.524,0,0,1-1.126-.365,1.641,1.641,0,0,1-.518-.32c-.578-.289-.457-.989-.7-1.461-.03-.335-.107-.7-.152-1.05a.688.688,0,0,1,.107-.426.755.755,0,0,1,.746-.152" transform="translate(0 0)" fill="#1c8bf7"/>
    <path id="Path_49488" data-name="Path 49488" d="M273.995,90.2h1.751v1.842a3.871,3.871,0,0,1-1.888.4,3.023,3.023,0,0,1-.2-6.013h.2a3.091,3.091,0,0,1,2.146.807l.076.076L277.374,86l-.091-.076a4.912,4.912,0,0,0-3.455-1.1A4.429,4.429,0,0,0,269.2,89.06v.411a4.42,4.42,0,0,0,4.627,4.6,7.513,7.513,0,0,0,3.577-.852l.061-.046V88.6H273.98v1.6Zm7.794-.061h3.927V88.527h-3.927V86.655h4.125V85.041h-5.891v8.768h6.119V92.18h-4.353Zm10.853-5.312h-.107a4.429,4.429,0,0,0-4.627,4.232v.411a4.65,4.65,0,1,0,4.734-4.643m-.091,7.6a3,3,0,1,1,2.816-3.3v.244a2.8,2.8,0,0,1-2.816,3.06m10.32-7.383h-3.486v8.768h3.3a4.436,4.436,0,0,0,4.643-4.4,4.19,4.19,0,0,0-4.46-4.369m-.715,7.169h-1.02V86.655H302.4c1.416,0,3.09.487,3.09,2.77.015,2.512-2.329,2.786-3.334,2.786m7.306,1.614h1.751V85.056h-1.751Zm7.52-5.267c-.837-.274-1.537-.518-1.537-1.142,0-.731.67-.989,1.279-.989a1.668,1.668,0,0,1,1.4.624l.076.122,1.279-1.355-.091-.076a3.651,3.651,0,0,0-2.557-.913c-1.629,0-3.273.837-3.273,2.694s1.37,2.238,2.481,2.6c.837.274,1.583.518,1.583,1.248s-.715,1.05-1.37,1.05a1.881,1.881,0,0,1-1.553-.837l-.076-.122L313.3,92.743l.061.076a3.658,3.658,0,0,0,2.862,1.2c1.964,0,3.242-1.111,3.242-2.831.061-1.827-1.34-2.268-2.481-2.633" transform="translate(-228.223 -71.905)" fill="#1c8bf7"/>
  </g>
</svg>
