<svg width="20.06" viewBox="0 0 20.06 14.972">
  <defs>
    <linearGradient id="linear-gradient" x1="0.098" y1="1" x2="1.174" y2="-0.175" gradientUnits="objectBoundingBox">
      <stop offset="0" stop-color="#38d2fc"/>
      <stop offset="1" stop-color="#c789fb"/>
    </linearGradient>
  </defs>
  <path id="quote" d="M2.107,16.25l.025.168.026-.006a4.5,4.5,0,1,0,4.4-5.441,4.473,4.473,0,0,0-.65.065,3.583,3.583,0,0,1,.254-.68,4.213,4.213,0,0,1,.469-.844,4.983,4.983,0,0,1,.6-.737,6.8,6.8,0,0,1,.692-.6,4.249,4.249,0,0,1,.714-.463,3.8,3.8,0,0,1,.65-.35l.539-.222.474-.2L9.815,5l-.6.144c-.191.048-.424.1-.689.171a5.424,5.424,0,0,0-.882.312,6.256,6.256,0,0,0-1.028.467,9.391,9.391,0,0,0-1.091.692,7.835,7.835,0,0,0-1.05.944A7.01,7.01,0,0,0,3.57,8.892a8.123,8.123,0,0,0-.7,1.3A11.078,11.078,0,0,0,2.4,11.527a12.072,12.072,0,0,0-.384,2.437,12.457,12.457,0,0,0,.028,1.747q.021.271.063.539Zm11,0,.025.168.026-.006a4.608,4.608,0,1,0,3.749-5.376,3.583,3.583,0,0,1,.254-.68,4.213,4.213,0,0,1,.469-.844,4.982,4.982,0,0,1,.6-.737,6.8,6.8,0,0,1,.692-.6,4.249,4.249,0,0,1,.714-.463,3.8,3.8,0,0,1,.65-.35l.539-.222c.3-.123.473-.2.473-.2L20.814,5l-.6.144c-.191.048-.424.1-.689.171a5.424,5.424,0,0,0-.882.312,6.256,6.256,0,0,0-1.028.467,9.391,9.391,0,0,0-1.091.692,7.835,7.835,0,0,0-1.05.944,7.01,7.01,0,0,0-.909,1.162,8.122,8.122,0,0,0-.7,1.3,11.078,11.078,0,0,0-.468,1.336,12.072,12.072,0,0,0-.384,2.437,12.457,12.457,0,0,0,.028,1.747q.022.27.064.537Z" transform="translate(-1.998 -5)" fill="url(#linear-gradient)"/>
</svg>
