<svg  width="69.676" height="46.885" viewBox="0 0 69.676 46.885">
  <defs>
    <linearGradient id="logo-gradient" y1="0.041" x2="0.844" y2="1" gradientUnits="objectBoundingBox">
      <stop offset="0" stop-color="#38d2fc"/>
      <stop offset="1" stop-color="#c789fb"/>
    </linearGradient>
    <clipPath id="clip-path">
      <rect id="Rectangle_15002" data-name="Rectangle 15002" width="69.676" height="46.884" fill="none"/>
    </clipPath>
    <clipPath id="clip-path-2">
      <path id="Path_49502" data-name="Path 49502" d="M89.14,0a.234.234,0,0,0-.085.02L83.789,2.345a.236.236,0,0,0-.128.137h0l-3.194,9.012c-.063.2.062.276.283.276h3.838c.22,0,.333.081.289.255l-2,8.242a.237.237,0,0,0,.436.175l7.04-12.422a.238.238,0,0,0-.247-.351l-4.962.857a.237.237,0,0,1-.246-.351l4.46-7.82A.238.238,0,0,0,89.162,0Z" transform="translate(-80.448)" fill="url(#logo-gradient)"/>
    </clipPath>
  </defs>
  <g id="Return_logo" data-name="Return logo" transform="translate(0)">
    <path id="Path_49491" data-name="Path 49491" d="M9.82,28.737,6.234,39.78,2.685,28.737H0L5.061,42.853H7.435l5.081-14.116Z" transform="translate(0 -14.107)"/>
    <rect id="Rectangle_15001" data-name="Rectangle 15001" width="2.443" height="14.116" transform="translate(14.251 14.63)"/>
    <path id="Path_49492" data-name="Path 49492" d="M47.444,30.715h-4.4V42.853H40.609V30.715H36.246V28.737h11.2Z" transform="translate(-17.793 -14.107)"/>
    <path id="Path_49493" data-name="Path 49493" d="M70.128,36.551h-5.8v4.343h6.777v1.959h-9.23V28.737h9.161v1.978H64.33v3.9h5.8Z" transform="translate(-30.375 -14.107)"/>
    <g id="Group_27729" data-name="Group 27729" transform="translate(0 0)">
      <g id="Group_27728" data-name="Group 27728" clip-path="url(#clip-path)">
        <path id="Path_49494" data-name="Path 49494" d="M4.351,75.782H.987V80.61H0V69.028H3.763a4.3,4.3,0,0,1,2.9.9,3.427,3.427,0,0,1,.39,4.473A3.334,3.334,0,0,1,5.3,75.575l2.9,4.932v.1H7.151ZM.987,74.955h3a2.779,2.779,0,0,0,1.981-.7,2.648,2.648,0,0,0-.032-3.721,3.233,3.233,0,0,0-2.188-.677H.987Z" transform="translate(0 -33.885)"/>
        <path id="Path_49495" data-name="Path 49495" d="M26.755,75.058H21.337v4.725h6.229v.827H20.359V69.028h7.168v.827H21.337v4.375h5.417Z" transform="translate(-9.994 -33.885)"/>
        <path id="Path_49496" data-name="Path 49496" d="M45.722,69.856h-3.97V80.611h-.979V69.856H36.813v-.827h8.909Z" transform="translate(-18.071 -33.885)"/>
        <path id="Path_49497" data-name="Path 49497" d="M65.794,69.029v7.907a4.011,4.011,0,0,1-.517,2.036A3.387,3.387,0,0,1,63.841,80.3a4.677,4.677,0,0,1-2.128.465,4.2,4.2,0,0,1-2.931-1,3.658,3.658,0,0,1-1.142-2.764V69.029h.971v7.836a3.011,3.011,0,0,0,.835,2.271,3.576,3.576,0,0,0,4.531,0,3.013,3.013,0,0,0,.831-2.259V69.029Z" transform="translate(-28.295 -33.886)"/>
        <path id="Path_49498" data-name="Path 49498" d="M83.32,75.782H79.955V80.61h-.986V69.028h3.762a4.3,4.3,0,0,1,2.9.9,3.426,3.426,0,0,1,.389,4.473,3.335,3.335,0,0,1-1.75,1.176l2.9,4.932v.1H86.12Zm-3.365-.827h3a2.778,2.778,0,0,0,1.98-.7,2.648,2.648,0,0,0-.032-3.721,3.233,3.233,0,0,0-2.188-.677h-2.76Z" transform="translate(-38.765 -33.885)"/>
        <path id="Path_49499" data-name="Path 49499" d="M107.951,80.611h-.979L100.315,70.7v9.912h-.986V69.029h.986l6.666,9.92v-9.92h.97Z" transform="translate(-48.759 -33.885)"/>
        <path id="Path_49500" data-name="Path 49500" d="M127.865,77.61a1.875,1.875,0,0,0-.676-1.523,7.146,7.146,0,0,0-2.474-1.066,8.664,8.664,0,0,1-2.625-1.1,2.673,2.673,0,0,1-.083-4.371,4.493,4.493,0,0,1,2.8-.831,4.642,4.642,0,0,1,2.064.445,3.384,3.384,0,0,1,1.412,1.241,3.257,3.257,0,0,1,.5,1.774h-.987a2.436,2.436,0,0,0-.811-1.911,3.162,3.162,0,0,0-2.18-.722,3.433,3.433,0,0,0-2.116.594,1.853,1.853,0,0,0-.788,1.55,1.752,1.752,0,0,0,.708,1.442,6.562,6.562,0,0,0,2.267.984,10.671,10.671,0,0,1,2.363.883,3.382,3.382,0,0,1,1.209,1.094,2.739,2.739,0,0,1,.405,1.5,2.617,2.617,0,0,1-1.094,2.2,4.657,4.657,0,0,1-2.884.827,5.66,5.66,0,0,1-2.247-.437,3.427,3.427,0,0,1-1.551-1.225,3.162,3.162,0,0,1-.529-1.806h.979a2.312,2.312,0,0,0,.915,1.933,3.87,3.87,0,0,0,2.434.708,3.607,3.607,0,0,0,2.172-.6,1.865,1.865,0,0,0,.819-1.583" transform="translate(-59.175 -33.732)"/>
      </g>
    </g>
    <g id="Group_27731" data-name="Group 27731" transform="translate(40.957)">
      <g id="Group_27730" data-name="Group 27730" clip-path="url(#clip-path-2)">
        <g id="Component_5_19" data-name="Component 5 – 19" transform="translate(-5.996 -14.862)">
          <path id="Path_49501" data-name="Path 49501" d="M70.67-2.631l8.481,19.946L88.792-.247,80.311-20.193Z" transform="translate(-70.67 20.193)" fill="url(#logo-gradient)"/>
        </g>
      </g>
    </g>
  </g>
</svg>
